<?xml version="1.0" encoding="utf-8"?>
<!-- Generator: Adobe Illustrator 27.8.1, SVG Export Plug-In . SVG Version: 6.00 Build 0)  -->
<svg version="1.1" id="Layer_2_00000170254599392220071490000006320004770054347448_"
	 xmlns="http://www.w3.org/2000/svg" xmlns:xlink="http://www.w3.org/1999/xlink" x="0px" y="0px" viewBox="0 0 130.4 87.7"
	 style="enable-background:new 0 0 130.4 87.7;" xml:space="preserve">
<style type="text/css">
	.st0{fill:#3DDC91;}
</style>
<g id="Layer_1-2">
	<path class="st0" d="M67.2,87.7c0-6.4,0-12.8,0-19.2c0-0.7-0.4-0.7-0.9-0.4C55.1,80.1,38.5,92.6,21.4,85.6
		C9.2,79.8,15.8,87.3,0,87.7V0c14.4-0.4,23.2,11.9,21.8,25.5c15.8-4.7,33.6,3.2,39.3,18.9c1.4,0.9,3.1-2.8,4.5-3.5
		c1.3-1.1,1.6-2.3,1.6-3.9c-0.1-12.4,0-24.7,0-37C81-0.4,90.1,11.1,88.8,24.5c0,1,0,1,1,0.9c9.3-2.3,20-0.8,27.6,5.1
		c22.1,14.5,14.5,50.7-10.9,56.2c-8.6,2.7-17.5-0.9-25.1-3.6C77.4,86.5,72.2,87.4,67.2,87.7L67.2,87.7z M41.3,59
		C45,47.7,28,40.5,22.8,51.2c-4.1,8.6,4.5,17.8,13.3,14C45,62.2,51.9,54.9,58,48.1c0,0-0.1-0.1-0.1-0.1C52.6,51.9,47.1,55.6,41.3,59
		L41.3,59z M89.2,58.1c0.8,2.8,2.3,5.5,5.8,7.1c26.6,4.3,12.3-40.8-19.2-6.5c3-1.4,6.1-3.5,9-5.2l0,0c0.2-0.1,3.8-1.5,4.9-2.2"/>
</g>
</svg>
