<?xml version="1.0" encoding="UTF-8"?><svg id="Layer_2" xmlns="http://www.w3.org/2000/svg" viewBox="0 0 130.4 87.72"><g id="Layer_1-2"><path d="m67.16,87.72c0-6.43.01-12.82,0-19.24.02-.66-.4-.73-.87-.45-11.15,12.06-27.78,24.59-44.85,17.61-12.21-5.85-5.68,1.62-21.44,2.07V.01c14.44-.43,23.17,11.92,21.81,25.55,15.76-4.71,33.59,3.23,39.32,18.87,1.4.91,3.07-2.81,4.46-3.45,1.26-1.07,1.61-2.28,1.6-3.91-.07-12.35-.03-24.7-.03-37.05,13.85-.41,22.89,11.09,21.66,24.45.03,1.01,0,1.04,1.01.87,9.26-2.31,19.97-.8,27.56,5.06,22.07,14.48,14.51,50.72-10.94,56.25-8.64,2.74-17.48-.88-25.11-3.56-3.93,3.37-9.14,4.34-14.17,4.63Zm-25.84-28.77c3.67-11.26-13.29-18.45-18.5-7.75-4.12,8.64,4.48,17.83,13.34,14.02,8.82-3.07,15.69-10.34,21.87-17.14-.04-.04-.08-.08-.11-.12-5.37,3.97-10.8,7.61-16.59,10.99Zm47.92-.82c.84,2.77,2.3,5.46,5.8,7.13,26.61,4.26,12.27-40.78-19.25-6.53,2.96-1.36,6.11-3.52,9.02-5.15h0c.25-.08,3.78-1.55,4.93-2.17"/></g></svg>